<svg width="48" height="48" viewBox="0 0 48 48" fill="none" xmlns="http://www.w3.org/2000/svg">
<path d="M0 8C0 3.58172 3.58172 0 8 0H40C44.4183 0 48 3.58172 48 8V40C48 44.4183 44.4183 48 40 48H8C3.58172 48 0 44.4183 0 40V8Z" fill="#43E660"/>
<path fill-rule="evenodd" clip-rule="evenodd" d="M30 11.9998V17H25V18H30V22.9998H31V18H36V17H31V11.9998H30ZM12.5 12L12 12.5V22.5L12.5 23H22.5L23 22.5V12.5L22.5 12H12.5ZM13 22V13H22V22H13ZM12.5 25L12 25.5V35.5L12.5 36H22.5L23 35.5V25.5L22.5 25H12.5ZM13 35V26H22V35H13ZM25 25.5L25.5 25H35.5L36 25.5V35.5L35.5 36H25.5L25 35.5V25.5ZM26 26V35H35V26H26Z" fill="black"/>
</svg>
