<svg width="40" height="40" viewBox="0 0 40 40" fill="none" xmlns="http://www.w3.org/2000/svg">
  <rect width="40" height="40" rx="8" fill="#BBBEAC"/>
  <path fill-rule="evenodd" clip-rule="evenodd" d="M11.65 27.068V13.3058L11.6501 13.3043C11.6505 13.2989 11.6514 13.287 11.6539 13.2697C11.6589 13.235 11.6697 13.1788 11.6933 13.1082C11.7399 12.9683 11.8374 12.7678 12.0448 12.5604C12.4558 12.1494 13.3636 11.65 15.3625 11.65C17.3614 11.65 18.2692 12.1494 18.6802 12.5604C18.8876 12.7678 18.9851 12.9683 19.0317 13.1082C19.0553 13.1788 19.0661 13.235 19.0711 13.2697C19.0736 13.287 19.0745 13.2989 19.0749 13.3043L19.075 13.3058V27.068C18.4186 26.5244 17.2896 26.0875 15.3625 26.0875C13.4354 26.0875 12.3064 26.5244 11.65 27.068ZM19.4875 28.5623C19.075 28.5623 19.075 28.5627 19.075 28.5631L19.075 28.5638L19.075 28.5652L19.075 28.5673L19.0751 28.5697C19.0751 28.5703 19.0751 28.5693 19.0749 28.5666C19.0745 28.5612 19.0736 28.5493 19.0711 28.532C19.0661 28.4973 19.0553 28.4411 19.0317 28.3705C18.9851 28.2307 18.8876 28.0302 18.6802 27.8228C18.2692 27.4119 17.3614 26.9125 15.3625 26.9125C13.3636 26.9125 12.4558 27.4119 12.0448 27.8228C11.8374 28.0302 11.7399 28.2307 11.6933 28.3705C11.6697 28.4411 11.6589 28.4973 11.6539 28.532C11.6514 28.5493 11.6505 28.5612 11.6501 28.5666C11.6499 28.5693 11.6499 28.5703 11.6499 28.5697L11.65 28.5673L11.65 28.5652L11.65 28.5638L11.65 28.5631C11.65 28.5627 11.65 28.5623 11.2375 28.5623H10.825V13.3H11.2375C10.825 13.3 10.825 13.2996 10.825 13.2992L10.825 13.2983L10.825 13.2964L10.8251 13.292L10.8253 13.2808C10.8256 13.2723 10.8261 13.2618 10.8269 13.2494C10.8286 13.2246 10.8316 13.1921 10.8372 13.153C10.8484 13.075 10.8697 12.97 10.9106 12.8473C10.9929 12.6004 11.1532 12.2853 11.4614 11.9771C12.0817 11.3568 13.2364 10.825 15.3625 10.825C17.4886 10.825 18.6433 11.3568 19.2636 11.9771C19.3491 12.0626 19.4232 12.1487 19.4875 12.2337C19.5518 12.1487 19.6259 12.0626 19.7114 11.9771C20.3317 11.3568 21.4864 10.825 23.6125 10.825C25.7386 10.825 26.8933 11.3568 27.5136 11.9771C27.8218 12.2853 27.9821 12.6004 28.0644 12.8473C28.1053 12.97 28.1266 13.075 28.1378 13.153C28.1434 13.1921 28.1464 13.2246 28.1481 13.2494C28.1489 13.2618 28.1494 13.2723 28.1497 13.2808L28.1499 13.292L28.15 13.2964L28.15 13.2983L28.15 13.2992C28.15 13.2996 28.15 13.3 27.7375 13.3H28.15V28.5615V28.5623H27.7375C27.325 28.5623 27.325 28.5627 27.325 28.5631L27.325 28.5638L27.325 28.5652L27.325 28.5673L27.3251 28.5697C27.3251 28.5703 27.3251 28.5693 27.3249 28.5666C27.3245 28.5612 27.3236 28.5493 27.3211 28.532C27.3161 28.4973 27.3053 28.4411 27.2817 28.3705C27.2351 28.2307 27.1376 28.0302 26.9302 27.8228C26.5192 27.4119 25.6114 26.9125 23.6125 26.9125C21.6136 26.9125 20.7058 27.4119 20.2948 27.8228C20.0874 28.0302 19.9899 28.2307 19.9433 28.3705C19.9197 28.4411 19.9089 28.4973 19.9039 28.532C19.9014 28.5493 19.9005 28.5612 19.9001 28.5666C19.9 28.568 19.8999 28.569 19.8999 28.5695L19.9 28.5673L19.9 28.5652L19.9 28.5638L19.9 28.5631C19.9 28.5627 19.9 28.5623 19.4875 28.5623ZM19.8999 28.5697C19.8999 28.57 19.8999 28.5699 19.8999 28.5695L19.8999 28.5697ZM19.9 13.3058V27.068C20.5564 26.5244 21.6854 26.0875 23.6125 26.0875C25.5396 26.0875 26.6686 26.5244 27.325 27.068V13.3058L27.3249 13.3043C27.3245 13.2989 27.3236 13.287 27.3211 13.2697C27.3161 13.235 27.3053 13.1788 27.2817 13.1082C27.2351 12.9683 27.1376 12.7678 26.9302 12.5604C26.5192 12.1494 25.6114 11.65 23.6125 11.65C21.6136 11.65 20.7058 12.1494 20.2948 12.5604C20.0874 12.7678 19.9899 12.9683 19.9433 13.1082C19.9197 13.1788 19.9089 13.235 19.9039 13.2697C19.9014 13.287 19.9005 13.2989 19.9001 13.3043L19.9 13.3058Z" fill="black"/>
</svg>
