<svg width="48" height="48" viewBox="0 0 48 48" fill="none" xmlns="http://www.w3.org/2000/svg">
<path d="M0 8C0 3.58172 3.58172 0 8 0H40C44.4183 0 48 3.58172 48 8V40C48 44.4183 44.4183 48 40 48H8C3.58172 48 0 44.4183 0 40V8Z" fill="#F1EFE3"/>
<path d="M16.1336 21.4258C16.5569 22.8294 17.0693 24.1458 17.6263 25.4157C18.5843 27.6901 19.2304 28.8932 20.1235 30.3858C21.2152 32.1681 22.4202 34.1975 24.403 35.5119C25.8511 36.4699 27.6131 36.96 29.3063 36.96C31.6921 36.96 33.7418 35.9129 35.0582 34.6856C36.3504 33.4826 38.0233 31.1636 38.0233 26.639C38.0233 25.0795 38.7139 23.7408 39.2263 22.6714C39.2263 22.6491 39.2486 22.6046 39.2931 22.5155C39.4936 22.0699 39.7387 21.4907 39.7387 20.9114C39.7387 20.4881 39.6273 19.998 39.3377 19.5747C38.8921 18.8172 38.0901 18.5499 37.3529 18.5499C35.6374 18.5499 34.4547 19.7529 33.8531 20.9803L33.6526 21.3813C33.4076 21.0248 33.1625 20.6461 32.962 20.3119C32.3382 19.2203 31.9818 18.4851 31.6699 17.5474C31.4248 16.8122 31.2243 15.9656 31.0906 15.2729C30.7119 13.0876 30.0881 12.3747 29.0612 12.1074C28.3038 11.9069 27.4126 12.0628 26.7645 12.4861C26.321 11.4836 25.5635 11.038 24.559 11.038C23.1331 11.038 21.839 11.9737 21.839 13.5575C21.839 13.758 21.8612 13.9585 21.8835 14.2036C21.7053 14.159 21.5048 14.1367 21.3043 14.1367C19.7671 14.1367 18.6288 15.2061 18.6288 16.6562C18.6288 16.9904 18.6734 17.3691 18.7848 17.8147C18.6511 17.7924 18.5174 17.7924 18.3838 17.7924C17.6263 17.837 16.9357 18.1266 16.4435 18.7281C15.9554 19.3074 15.7549 20.1985 16.1336 21.4258Z" fill="#1F1F1A"/>
<path d="M17.4035 21.0248C17.203 20.3787 17.2253 19.8886 17.4704 19.5767C17.7154 19.2871 18.0496 19.1534 18.4506 19.1311C19.1413 19.1089 19.4086 19.599 19.8096 20.8689C20.0547 21.6709 20.5448 22.8314 20.8344 23.4775C21.2132 24.2572 21.7478 25.3043 21.9929 25.6628C22.1934 25.9747 22.3716 26.0638 22.5721 26.0638C22.9286 26.0638 23.1959 25.8633 23.1959 25.5068C23.1959 25.3063 22.9954 24.9721 22.884 24.7716C22.6835 24.3929 22.2602 23.6354 21.9706 22.9894C21.6587 22.2764 21.3023 21.3853 21.0126 20.5813C20.8344 20.1134 20.6339 19.4451 20.4334 18.7767C20.1215 17.7519 19.9656 17.1281 19.9656 16.6582C19.9656 15.9453 20.5002 15.4775 21.3023 15.4775C21.8815 15.4775 22.2602 15.7671 22.5053 16.8142C22.7058 17.7721 23.0623 19.3337 23.5747 20.559C23.9088 21.361 24.399 22.4324 24.6886 22.9671C24.8668 23.279 25.0673 23.5463 25.0673 23.6577C25.0673 23.8137 24.7777 24.0587 24.5326 24.3929C24.3767 24.5934 24.3099 24.7271 24.3099 24.883C24.3099 25.0167 24.399 25.1504 24.5326 25.3286C24.6663 25.5068 24.8 25.6851 24.9559 25.6851C25.0673 25.6851 25.1342 25.6405 25.201 25.5514C25.8916 24.6825 26.6491 24.081 27.52 23.5889C28.5448 23.0096 29.5939 22.72 30.4182 22.5418C30.8192 22.4527 30.9306 22.3635 30.9306 22.1408C30.9306 21.8734 30.7301 21.7175 30.4628 21.6952C30.2623 21.6729 30.084 21.6952 29.7721 21.7175C29.5494 21.7397 29.438 21.6283 29.3043 21.3387C28.9033 20.4921 28.1235 19.0643 27.6557 17.2375C27.4552 16.4577 27.2769 15.6334 27.1656 14.562C27.0987 14.0719 27.1878 13.8937 27.4329 13.6709C27.7448 13.4035 28.3018 13.2921 28.725 13.4035C29.2375 13.5372 29.5048 13.9382 29.7721 15.4997C29.9058 16.2349 30.1286 17.1706 30.3959 17.9747C30.7301 18.9995 31.1534 19.8481 31.7995 20.9843C32.1559 21.6081 32.6015 22.2542 33.0694 22.88C32.9802 23.1473 32.8243 23.3256 32.3119 23.7489C31.7995 24.1721 31.2871 24.6177 30.8192 25.442C30.485 26.0435 30.3291 26.7119 30.3291 27.1575C30.3291 27.5808 30.4182 27.6699 30.6856 27.6699C31.1534 27.6699 31.5321 27.5808 31.5544 27.3802C31.6658 26.5782 31.7995 26.0658 32.245 25.4623C32.5124 25.1281 32.9802 24.7048 33.359 24.3706C34.0719 23.7914 34.3169 23.4572 34.562 22.6329C34.6734 22.2542 34.8071 21.8977 34.9853 21.5635C35.4086 20.7838 36.1661 19.8927 37.3488 19.8927C37.7276 19.8927 38.0395 20.004 38.24 20.3159C38.3514 20.4942 38.3959 20.7392 38.3959 20.9175C38.3959 21.3185 38.1063 21.8754 37.9726 22.1428C37.4825 23.1899 36.6805 24.7959 36.6805 26.6451C36.6805 30.6795 35.2547 32.6866 34.1387 33.7114C33.0471 34.7362 31.3296 35.6294 29.3023 35.6294C27.8542 35.6294 26.3595 35.2061 25.1342 34.404C23.4187 33.2678 22.3473 31.4835 21.2557 29.7013C20.3868 28.2532 19.7853 27.1149 18.8476 24.9094C18.319 23.6314 17.8268 22.3838 17.4035 21.0248Z" fill="#FFE450"/>
<path d="M23.1332 13.5575C23.1332 12.7109 23.9129 12.3767 24.559 12.3767C25.2496 12.3767 25.4947 12.7109 25.6729 13.4238C25.8289 14.003 25.8957 14.5377 25.9625 15.1615C26.0517 15.7853 26.3636 17.2132 26.4527 17.5696C26.7868 18.7949 27.4552 20.2451 28.2572 21.9828C27.7894 22.1387 27.1656 22.4061 26.7423 22.6289C26.2076 22.9185 26.0962 22.9185 25.8734 22.4952C25.4056 21.6263 25.0714 20.9803 24.7818 20.2208C24.5367 19.597 24.2917 18.8841 24.0912 18.0577C23.757 16.6542 23.7124 16.2532 23.4451 15.6051C23.2891 14.9387 23.1332 14.1144 23.1332 13.5575Z" fill="#FFE450"/>
<path d="M15.1534 28.48C14.6815 28.7716 12.1802 30.082 11.6152 30.2906C11.2121 30.4405 10.7747 30.4041 10.5175 29.6425C10.2015 28.7008 10.6451 28.478 11.277 28.2329C11.8359 28.0162 14.1549 27.1777 14.6937 27.0319C15.0724 26.9306 15.3357 27.0582 15.518 27.5139C15.7185 28.0142 15.5808 28.2147 15.1534 28.48Z" fill="#1F1F1A"/>
<path d="M13.0916 23.1716C12.4192 23.1899 9.62631 23.0704 8.98833 23.0076C8.4334 22.9529 8.20859 22.7078 8.26935 21.9038C8.33416 21.041 8.67036 20.9883 9.21517 21.041C9.84707 21.1018 12.7737 21.5777 13.2395 21.7215C13.7215 21.8714 13.7883 22.0901 13.7296 22.5114C13.6547 23.0582 13.4076 23.1615 13.0916 23.1716Z" fill="#1F1F1A"/>
<path d="M13.438 17.517C12.6684 17.2739 10.3838 15.8906 9.78836 15.5342C9.24962 15.2101 9.18076 14.9185 9.55544 14.2076C9.8876 13.5797 10.2562 13.4704 10.803 13.7539C11.437 14.084 13.6749 15.8258 14.1023 16.1701C14.5154 16.5023 14.4587 16.6744 14.242 17.1018C14.0253 17.5291 13.8228 17.6385 13.438 17.517Z" fill="#1F1F1A"/>
</svg>
