<svg width="24" height="24" viewBox="-8 -8 40 40" fill="none" xmlns="http://www.w3.org/2000/svg">
    <rect x="-8" y="-8" width="40" height="40" fill="#FC3E4B" />
    <g id="icons/24px/coupon">
        <path id="Union" fill-rule="evenodd" clip-rule="evenodd"
            d="M14.1094 2.50142L14.4629 2.85497L19.9371 8.32914L19.9371 8.32916L22.3725 10.7646L23.5165 11.9086L23.8694 12.2615L23.966 12.358L23.9912 12.3832L23.9976 12.3897L23.9992 12.3913L23.9996 12.3917L23.9997 12.3918L23.6462 12.7454L23.9997 13.099L23.9996 13.0991L23.9992 13.0995L23.9976 13.1011L23.9912 13.1076L23.966 13.1327L23.8694 13.2293L23.5165 13.5822L22.3725 14.7262L19.9371 17.1616L19.9371 17.1617L18.0392 19.0595L17.6857 19.413L16.9786 18.7059L17.3321 18.3524L19.23 16.4546L19.23 16.4546L21.6654 14.0191L22.8094 12.8751L22.9391 12.7454L22.8094 12.6157L21.6654 11.4717L19.23 9.03624L19.23 9.03622L13.7558 3.56208L13.4023 3.20853L14.1094 2.50142ZM23.6462 12.7454L23.9998 12.3918V13.099L23.6462 12.7454ZM0 3.90688L0.500015 3.40686L8.84503 3.40712L9.19857 3.55356L18.0917 12.4467V13.1538L9.74694 21.4986H9.03983L0.146701 12.6054L0.000254661 12.2519L0 3.90688ZM1.00002 4.40688L1.00025 12.0448L9.39339 20.4379L17.031 12.8003L8.6379 4.40711L1.00002 4.40688ZM4.55469 7.47701H4.05469V8.47701H4.55469H4.56629H5.06629V7.47701H4.56629H4.55469Z"
            fill="white" />
    </g>
</svg>