<svg width="48" height="48" viewBox="0 0 48 48" fill="none" xmlns="http://www.w3.org/2000/svg">
<rect width="48" height="48" rx="8" fill="#FF9E47"/>
<path fill-rule="evenodd" clip-rule="evenodd" d="M24.5557 13.6364H16.2222C15.9154 13.6364 15.6667 13.8806 15.6667 14.1818V33.8182C15.6667 34.1194 15.9154 34.3636 16.2222 34.3636H31.7778C32.0846 34.3636 32.3333 34.1194 32.3333 33.8182V23.4547H27.3335C25.7993 23.4547 24.5557 22.2336 24.5557 20.7274V13.6365C24.5557 13.6364 24.5557 13.6364 24.5557 13.6364ZM32.3333 21.8182V21.8183H27.3335C26.7198 21.8183 26.2223 21.3299 26.2223 20.7274V13.6365L32.3333 21.8182ZM34 21.8382V33.8182C34 35.0232 33.0051 36 31.7778 36H16.2222C14.9949 36 14 35.0232 14 33.8182V14.1818C14 12.9768 14.9949 12 16.2222 12H26.2221C26.2221 12 26.2221 12 26.2221 12C26.2222 12 26.2222 12 26.2222 12C26.7431 12 27.2464 12.2404 27.5664 12.6688L33.6775 20.8506C33.8952 21.1422 34.0043 21.4897 34 21.8382Z" fill="black"/>
</svg>
