<svg version="1.1" id="Layer_1" xmlns="http://www.w3.org/2000/svg" xmlns:xlink="http://www.w3.org/1999/xlink" x="0px" y="0px"
	 width="100%" viewBox="0 0 364 362" enable-background="new 0 0 364 362" xml:space="preserve">
<path fill="#CEA54C" opacity="1.000000" stroke="none" 
	d="
M246.000000,363.000000 
	C164.028061,363.000000 82.556114,363.000000 1.042088,363.000000 
	C1.042088,242.402954 1.042088,121.805878 1.042088,1.104402 
	C122.221886,1.104402 243.443893,1.104402 364.832947,1.104402 
	C364.832947,121.666473 364.832947,242.333221 364.832947,363.000000 
	C325.472626,363.000000 285.986298,363.000000 246.000000,363.000000 
M264.052307,246.558197 
	C279.646820,228.895035 288.757446,208.326706 290.805847,184.880844 
	C296.048584,124.872734 251.863708,73.310608 191.565857,68.779480 
	C117.808983,63.236965 60.318314,134.477722 81.883835,205.395386 
	C93.840279,244.713852 120.476463,270.101562 160.507278,279.270935 
	C200.544235,288.441772 235.142548,276.800110 264.052307,246.558197 
z"/>
<path fill="#050402" opacity="1.000000" stroke="none" 
	d="
M263.805298,246.812531 
	C235.142548,276.800110 200.544235,288.441772 160.507278,279.270935 
	C120.476463,270.101562 93.840279,244.713852 81.883835,205.395386 
	C60.318314,134.477722 117.808983,63.236965 191.565857,68.779480 
	C251.863708,73.310608 296.048584,124.872734 290.805847,184.880844 
	C288.757446,208.326706 279.646820,228.895035 263.805298,246.812531 
M138.549652,88.916512 
	C104.709045,108.190933 86.667114,137.323029 86.703224,176.231323 
	C86.753525,230.415390 130.584839,272.992859 184.916489,272.990662 
	C247.491104,272.988159 294.141144,213.679855 279.486115,152.760040 
	C264.559174,90.709831 197.109985,59.841236 138.549652,88.916512 
z"/>
<path fill="#CDA44C" opacity="1.000000" stroke="none" 
	d="
M138.876221,88.737450 
	C197.109985,59.841236 264.559174,90.709831 279.486115,152.760040 
	C294.141144,213.679855 247.491104,272.988159 184.916489,272.990662 
	C130.584839,272.992859 86.753525,230.415390 86.703224,176.231323 
	C86.667114,137.323029 104.709045,108.190933 138.876221,88.737450 
M159.314987,131.819153 
	C155.129318,136.300812 152.400925,141.342880 152.782425,147.648712 
	C155.948639,147.648712 158.694458,147.648712 161.525757,147.648712 
	C162.227722,141.111069 165.701599,136.673035 171.218384,134.358612 
	C179.682709,130.807632 188.508270,130.815704 197.014526,134.234207 
	C202.549820,136.458740 206.337662,140.649567 206.962265,146.944580 
	C207.634262,153.717346 205.177383,158.992264 199.166885,162.444717 
	C197.435318,163.439331 195.676407,164.392609 193.992996,165.463791 
	C185.534363,170.846039 181.790115,179.076172 179.584976,188.780823 
	C182.921631,188.780823 185.712570,188.780823 189.039383,188.780823 
	C190.640854,179.632874 196.938004,174.406204 204.608917,169.549133 
	C221.170761,159.062454 219.945465,136.686447 202.970718,126.842720 
	C193.491516,121.345673 169.329956,120.511330 159.314987,131.819153 
M192.157333,205.118851 
	C185.776901,201.649063 180.065765,201.923584 175.486664,205.920105 
	C171.029724,209.810074 169.547821,215.911224 171.739532,221.347656 
	C173.794785,226.445618 178.728790,229.881042 184.114334,229.963913 
	C189.627335,230.048752 195.014236,226.497040 196.963837,221.279480 
	C199.273438,215.098541 197.698166,209.861694 192.157333,205.118851 
z"/>
<path fill="#050402" opacity="1.000000" stroke="none" 
	d="
M159.566589,131.567596 
	C169.329956,120.511330 193.491516,121.345673 202.970718,126.842720 
	C219.945465,136.686447 221.170761,159.062454 204.608917,169.549133 
	C196.938004,174.406204 190.640854,179.632874 189.039383,188.780823 
	C185.712570,188.780823 182.921631,188.780823 179.584976,188.780823 
	C181.790115,179.076172 185.534363,170.846039 193.992996,165.463791 
	C195.676407,164.392609 197.435318,163.439331 199.166885,162.444717 
	C205.177383,158.992264 207.634262,153.717346 206.962265,146.944580 
	C206.337662,140.649567 202.549820,136.458740 197.014526,134.234207 
	C188.508270,130.815704 179.682709,130.807632 171.218384,134.358612 
	C165.701599,136.673035 162.227722,141.111069 161.525757,147.648712 
	C158.694458,147.648712 155.948639,147.648712 152.782425,147.648712 
	C152.400925,141.342880 155.129318,136.300812 159.566589,131.567596 
z"/>
<path fill="#040301" opacity="1.000000" stroke="none" 
	d="
M192.466034,205.340729 
	C197.698166,209.861694 199.273438,215.098541 196.963837,221.279480 
	C195.014236,226.497040 189.627335,230.048752 184.114334,229.963913 
	C178.728790,229.881042 173.794785,226.445618 171.739532,221.347656 
	C169.547821,215.911224 171.029724,209.810074 175.486664,205.920105 
	C180.065765,201.923584 185.776901,201.649063 192.466034,205.340729 
z"/>
</svg>