<svg width="40" height="40" viewBox="0 0 40 40" fill="none" xmlns="http://www.w3.org/2000/svg">
<rect y="0.000244141" width="40" height="40" rx="8" fill="#FC3E4B"/>
<g clip-path="url(#clip0_4305_9091)">
<path fill-rule="evenodd" clip-rule="evenodd" d="M13.875 13.8752V10.0002H14.875V13.8752H18.75V14.8752H14.875V18.7502H13.875V14.8752H10V13.8752H13.875ZM27.375 14.9624V15.6252V25.2502H27.3744C27.3748 25.271 27.375 25.2919 27.375 25.3127C27.375 27.1422 25.8919 28.6252 24.0625 28.6252C22.2331 28.6252 20.75 27.1422 20.75 25.3127C20.75 23.4833 22.2331 22.0002 24.0625 22.0002C24.9622 22.0002 25.7781 22.3589 26.375 22.941V16.2881L18.625 18.5024V26.5002H18.6244C18.6248 26.521 18.625 26.5419 18.625 26.5627C18.625 28.3922 17.1419 29.8752 15.3125 29.8752C13.4831 29.8752 12 28.3922 12 26.5627C12 24.7333 13.4831 23.2502 15.3125 23.2502C16.2122 23.2502 17.0281 23.6089 17.625 24.191V18.1252V17.7481L17.9876 17.6445L26.7376 15.1445L27.375 14.9624ZM15.3125 24.2502C14.0353 24.2502 13 25.2856 13 26.5627C13 27.8399 14.0353 28.8752 15.3125 28.8752C16.5897 28.8752 17.625 27.8399 17.625 26.5627C17.625 25.2856 16.5897 24.2502 15.3125 24.2502ZM21.75 25.3127C21.75 24.0356 22.7853 23.0002 24.0625 23.0002C25.3397 23.0002 26.375 24.0356 26.375 25.3127C26.375 26.5899 25.3397 27.6252 24.0625 27.6252C22.7853 27.6252 21.75 26.5899 21.75 25.3127Z" fill="black"/>
</g>
<defs>
<clipPath id="clip0_4305_9091">
<rect width="20" height="20" fill="white" transform="translate(10 10.0002)"/>
</clipPath>
</defs>
</svg>
