<svg width="48" height="48" viewBox="0 0 48 48" fill="none" xmlns="http://www.w3.org/2000/svg">
<rect width="48" height="48" rx="8" fill="#02ACC4"/>
<path d="M27.1667 16.6111V18.7222" stroke="white" stroke-linecap="round" stroke-linejoin="round"/>
<path d="M27.1667 22.9445V25.0556" stroke="white" stroke-linecap="round" stroke-linejoin="round"/>
<path d="M27.1667 29.2778V31.3889" stroke="white" stroke-linecap="round" stroke-linejoin="round"/>
<path d="M16.6111 16.6111H31.3889C31.9488 16.6111 32.4858 16.8335 32.8817 17.2294C33.2776 17.6254 33.5 18.1623 33.5 18.7222V21.8889C32.9401 21.8889 32.4031 22.1113 32.0072 22.5072C31.6113 22.9031 31.3889 23.4401 31.3889 24C31.3889 24.5599 31.6113 25.0969 32.0072 25.4928C32.4031 25.8887 32.9401 26.1111 33.5 26.1111V29.2778C33.5 29.8377 33.2776 30.3747 32.8817 30.7706C32.4858 31.1665 31.9488 31.3889 31.3889 31.3889H16.6111C16.0512 31.3889 15.5142 31.1665 15.1183 30.7706C14.7224 30.3747 14.5 29.8377 14.5 29.2778V26.1111C15.0599 26.1111 15.5969 25.8887 15.9928 25.4928C16.3887 25.0969 16.6111 24.5599 16.6111 24C16.6111 23.4401 16.3887 22.9031 15.9928 22.5072C15.5969 22.1113 15.0599 21.8889 14.5 21.8889V18.7222C14.5 18.1623 14.7224 17.6254 15.1183 17.2294C15.5142 16.8335 16.0512 16.6111 16.6111 16.6111Z" stroke="white" stroke-linecap="round" stroke-linejoin="round"/>
</svg>
